<?xml version="1.0" encoding="UTF-8" standalone="no"?>

<svg
   version="1.1"
   id="svg288"
   width="1805.3915"
   height="702.4657"
   viewBox="0 0 1805.3915 702.4657"
   xmlns="http://www.w3.org/2000/svg"
   xmlns:svg="http://www.w3.org/2000/svg">
  <defs
     id="defs292" />
  <g
     id="g296"
     transform="matrix(1.3333333,0,0,-1.3333333,-937.3332,1738.5637)">
    <g
       id="g298"
       transform="scale(0.1)">
      <path
         d="m 19015.455,8506.9538 165.329,-344.3647 49.234,142.2534 c 221.197,-190.2687 486.317,-320.4972 775.125,-264.3546 804.828,156.4964 514.173,1026.0183 514.173,1026.0183 l -56.424,-133.5716 -131.798,79.8925 c 0,0 250.02,-755.5033 -444.646,-861.6805 -197.6,-30.1344 -417.005,51.0394 -629.833,182.7353 l 147.41,89.6663"
         style="fill:#186c0d;fill-opacity:1;fill-rule:nonzero;stroke:none"
         id="path300" />
      <path
         d="m 18708.662,9758.7108 c 0,0 270.915,478.9272 891.808,228.7666 620.892,-250.1586 814.257,-719.3525 814.257,-719.3525 l 141.584,105.6857 -114.438,-347.237 -164.252,87.8702 -194.633,104.1006 154.411,3.9573 c -80.567,185.761 -243.989,420.5381 -575.054,605.6407 -649.846,363.3046 -953.683,-69.4316 -953.683,-69.4316"
         style="fill:#186c0d;fill-opacity:1;fill-rule:nonzero;stroke:none"
         id="path302" />
      <path
         d="m 12991.4,10400.5 c -0.2,-0.1 -0.6,-0.2 -0.7,-0.2 0.2,0 0.5,0.1 0.7,0.2 m 1538.5,2476.2 c 215.5,-96 410.1,-259.1 338.2,-577.9 -30.3,-134.3 -108.9,-284.9 -209.9,-435.9 -312.3,-466.5 -798.4,-932 -1215.1,-1268.1 -67.4,-54.3 -125.2,-98 -174,-133.3 714.4,97.8 1566.4,9.7 1693.7,-572.87 13,-59.39 16.3,-114.95 15.2,-162.98 -2.8,-123.55 -37.8,-289.01 -153.7,-482.56 -272.4,-455.02 -934.9,-938.57 -1572.7,-1108.63 -593,-158.1 -1302.9,-94.44 -1621.6,210.18 -125.4,119.9 -182.9,291.4 -92.8,483.13 96,204.47 306.5,347.61 529,449.37 635.2,290.62 1562.4,372.49 2339.4,469.09 2.3,0.31 4.5,0.47 6.8,0.47 27.8,0 50.4,-22.57 50.4,-50.4 0,-65.34 -50.1,-50.73 -154.3,-63.69 -709.1,-88.14 -1623.6,-181.69 -2202.2,-443.52 -203.8,-92.18 -398.7,-220.68 -485.3,-401.11 -133.7,-278.59 113.7,-448.05 319.9,-532.14 349.7,-142.66 835.8,-163.32 1290.3,-44.17 617,161.78 1267.9,632.82 1530.9,1068.81 110.2,182.65 142,335.88 144.5,446.79 14.3,636.03 -771.5,718.63 -1425.4,664.03 -198.9,-16.6 -337.3,-75.1 -472.4,-89.3 -67.6,-7 -64.2,75.9 -17.9,100.3 150.2,79 212.3,127.1 390.3,269.6 407.5,326.3 894.6,791.1 1199.6,1243 99.3,147.2 171.2,286.3 198.4,404.2 61.4,265 -96.3,393.1 -284.8,478.4 -254.2,114.9 -622.5,155 -1002.1,159.2 -907.9,10 -1958.9,-188.8 -2914.8,-521.9 -837.77,-292 -1448.61,-597.3 -2069.3,-969.9 -337.41,-202.5 -855.87,-549.9 -1146.87,-856.9 -110.21,-116.2 -190.88,-228.2 -227.45,-329.6 -95.28,-264.2 145.37,-372.22 351.39,-432.67 438.5,-128.62 1117.88,-142.83 1707.1,-147.43 929.33,-7.24 1731.33,46.8 2496.83,46.8 27.8,0 50.4,-22.58 50.4,-50.38 0,-78.15 -71.5,-51.07 -261.9,-56.72 -923.6,-27.43 -2288.74,-81.96 -3295.35,3.63 -392.03,33.32 -713.02,71.13 -952.78,214.72 -146.34,87.64 -251.95,237.45 -172.15,450.15 43.63,116.3 134.36,236.9 248.03,355 299.21,310.6 823.07,658.4 1166.17,864.3 624.32,374.8 1238.65,683.4 2081.38,979.1 931.6,326.8 1954.7,528.2 2853.5,534.2 426.6,2.6 834.9,-33.9 1123.4,-162.4"
         style="fill:#186c0d;fill-opacity:1;fill-rule:nonzero;stroke:none"
         id="path304" />
      <path
         d="m 13017.9,8985.32 c -25.6,0 -46.4,20.77 -46.4,46.35 0,71.51 56.9,46.66 236.2,51.58 1628.2,44.68 3874.6,74.49 5512.8,16.96 331.7,-11.64 583.9,-9.12 889.4,-20.2 49.6,-1.73 58.5,-63.4 -1,-68.48 -640.7,-54.02 -1566.5,-125.44 -2293.5,-198.82 -200.1,-20.2 -361.3,-38.29 -468.7,-53.31 -68.2,-9.53 -119.5,-10.1 -150,-36.72 0,0 1.1,1.38 1.7,2.56 2.7,4.93 2.7,14.54 0,19.2 116.1,-85.52 456.7,-88.05 610.9,-94.21 18,-0.72 32.5,-15.56 32.5,-33.75 0,-18.63 -15.2,-33.77 -33.8,-33.77 -128.8,0 -670.2,-1.48 -674.6,150.86 -2,73.63 126,81.55 204,92.43 657,91.57 1749,169.14 2377.4,222.93 200.7,17.18 282.5,15.46 395.3,29.43 0.6,0.07 -0.1,-0.05 -0.1,-0.05 -34.8,-6.79 -31.5,-59.21 2.2,-64.85 -316,11.89 -614.3,10.93 -958.3,22.9 -1730.8,62.21 -3946.9,-4.76 -5634.8,-51.03 -0.4,-0.01 -0.8,-0.01 -1.2,-0.01"
         style="fill:#186c0d;fill-opacity:1;fill-rule:nonzero;stroke:none"
         id="path306" />
      <path
         d="m 15331.6,9965.92 c 20.3,-0.11 46.1,10.26 50.7,20.81 6,13.87 -44.1,-14.44 -50.7,-20.81 m -27.6,-224.57 c 193.5,-3.88 363.2,161.53 479.9,239.29 38.1,23.96 74.6,-32.63 37.1,-57.52 -106.8,-70.73 -235.7,-170.87 -373.4,-229.31 -323.6,-137.34 -380.6,234.79 -121.9,364.79 128.5,64.6 199.5,-125.18 44.2,-166.8 -39.8,-10.66 -71.9,-2.24 -89.9,4.68 -22.4,-42.89 -69.5,-153.04 24,-155.13"
         style="fill:#186c0d;fill-opacity:1;fill-rule:nonzero;stroke:none"
         id="path308" />
      <path
         d="m 16168.7,11104 c -96.4,-314.1 -227.9,-811.5 -310.2,-1123.06 -82.1,-309.03 -108.9,-446.84 -116.6,-697.48 v -1.25 c 0.4,-57.51 -88.9,-58.5 -89.3,-0.68 v 2.31 c 22.2,250.28 38.9,407.55 123.2,719.26 88.4,325.4 225,837.7 327.6,1162.4 17.8,56.3 59.9,313.4 153.6,254 37.3,-23.7 14.1,-103.8 5.6,-148.5 -43.5,-228.6 -147.5,-616.6 -202.6,-839.2 -8.1,-30.4 -53.7,-19.1 -46.6,11.6 36.2,144.3 115.7,468.7 155.3,660.6"
         style="fill:#186c0d;fill-opacity:1;fill-rule:nonzero;stroke:none"
         id="path310" />
      <path
         d="m 16144.1,9965.92 c 20.3,-0.11 46.1,10.26 50.7,20.81 6,13.87 -44.1,-14.44 -50.7,-20.81 m -27.6,-224.57 c 193.5,-3.88 363.2,161.53 479.9,239.29 38.1,23.96 74.6,-32.63 37.1,-57.52 -106.8,-70.73 -235.7,-170.87 -373.4,-229.31 -323.6,-137.34 -380.6,234.79 -121.9,364.79 128.5,64.6 199.5,-125.18 44.2,-166.8 -39.8,-10.66 -71.9,-2.24 -89.9,4.68 -22.4,-42.89 -69.5,-153.04 24,-155.13"
         style="fill:#186c0d;fill-opacity:1;fill-rule:nonzero;stroke:none"
         id="path312" />
      <path
         d="m 16735.5,10108.2 c 55.3,-41.9 -36.1,-118.4 -60.9,-139.37 72.8,-59.7 220,-96.1 159,-247.17 -2.5,-6.31 -18.6,-33.58 -13.5,-39.87 53.1,-65.71 479.7,302.57 530.9,304.68 33.5,0 47.4,-43.02 20.2,-62.68 1.2,0.88 -0.6,-0.4 -3.7,-2.66 -134.9,-97.09 -324.2,-244.66 -494.3,-307.38 -64.9,-23.95 -143.9,-19.32 -144.5,59.18 0.5,83.59 72.9,114.41 -9.2,171.65 -34.6,24.12 -86.6,49.43 -114.6,86.17 -59.4,77.85 58,232.55 130.6,177.45"
         style="fill:#186c0d;fill-opacity:1;fill-rule:nonzero;stroke:none"
         id="path314" />
      <path
         d="m 17663.8,7984.44 c 65.1,232.06 123.8,501.51 182.6,761.56 -92.4,-239.54 -155.6,-493.24 -182.6,-761.56 m -274.6,1962.53 c -12.6,-80.9 -15.9,-136.93 85.9,-126.62 249.5,25.31 467.6,149.3 658.9,238.95 140.3,65.8 75.8,-139.54 54.5,-217.17 -47.4,-172.98 -107.9,-419.62 -151.9,-610.38 83.8,110.67 192.4,223.02 279.5,301.57 257.2,231.79 434.2,334.16 602.5,447.02 38,25.46 76.2,-31.49 38.2,-56.94 -163.2,-109.41 -345.2,-216.04 -594.8,-440.98 -134.2,-120.97 -258.4,-255.87 -367.4,-433.71 -84.9,-371.81 -169.4,-848.42 -291.2,-1189.99 -21.1,-59.06 -115.2,-164.63 -119,0.68 -2,86.46 11,174.61 25,262.84 52.5,329.44 164.4,686.56 305.8,927.89 76.2,336.41 160.7,627.27 233.8,937.01 -165.2,-78.06 -329.1,-148.49 -513.8,-207.48 -137,-43.73 -352.5,-95.02 -344.9,117.49 1.1,28.19 3.4,44.37 4.9,59.62 3.2,59.33 103.9,53.43 94,-9.8"
         style="fill:#186c0d;fill-opacity:1;fill-rule:nonzero;stroke:none"
         id="path316" />
      <path
         d="m 16686.9,10520.6 c 376.9,-146.9 773.2,-159 1170.1,-181.5 -158.7,-11.7 -317.4,-23.4 -476.1,-35 498.5,-42 1050.4,39.8 1228.2,182.7 -652.2,-86.3 -1288.9,-110.8 -1922.2,33.8"
         style="fill:#186c0d;fill-opacity:1;fill-rule:nonzero;stroke:none"
         id="path318" />
      <path
         d="m 17804.9,10917.2 c 122.6,-85.2 209.9,-197.5 268.3,-332.4 13.7,-31.7 29.1,-62.7 44.7,-93.5 0.1,-0.3 0.3,-0.6 0.4,-0.9 30.8,2.3 61.6,4.8 92.5,7.5 -0.3,0.8 -0.5,1.5 -0.7,2.3 -88.5,185.6 -197.4,348.3 -405.2,417"
         style="fill:#186c0d;fill-opacity:1;fill-rule:nonzero;stroke:none"
         id="path320" />
      <path
         d="m 16841.1,10667.7 c 6.5,-2 12.9,-4 19.3,-6 26.9,-8.2 54.1,-15.9 81.2,-23.3 47.3,-12.7 94.4,-24.3 143.3,-34.4 1.2,-0.3 2.5,-0.4 3.8,-0.5 18.2,-1.7 34.4,11.8 36.1,30.1 1.6,18.3 -12,34.5 -30.2,36.1 l -0.6,0.1 c -46.7,4.1 -94.9,10.3 -142.1,17.3 -22.1,3.4 -44.2,7 -66.2,10.9 22,29.9 46.1,58.1 72.1,84.5 24.6,-6.8 49.2,-13.3 74,-19.4 47.6,-11.7 94.9,-22.3 144,-31.2 1.3,-0.3 2.5,-0.4 3.8,-0.5 18.3,-1.2 34.2,12.6 35.4,31 1.2,18.3 -12.6,34.2 -31,35.4 h -0.5 c -46.8,3.1 -95.1,8.2 -142.6,14.3 -15,1.9 -30.1,4.2 -45.2,6.4 36.5,32.6 76.1,62 118.5,87.6 0.1,0 0.2,0.1 0.2,0.1 39.2,-10.5 78.6,-20.4 118.3,-29.3 47.8,-10.6 95.3,-20.1 144.7,-27.9 1.2,-0.2 2.5,-0.3 3.8,-0.4 18.4,-0.8 33.9,13.5 34.7,31.8 0.8,18.4 -13.5,33.9 -31.8,34.7 h -0.6 c -46.8,2 -95.2,6 -142.8,11 -24.9,2.6 -49.8,5.6 -74.6,8.9 113.3,58 242.8,90.9 380.4,90.9 342.4,0 634.8,-203.6 752.7,-491 -82.5,323.9 -370.5,566.3 -717.8,581.7 25.8,26.9 42.6,66.8 42.6,93 0,42.9 -44.6,77.5 -99.6,77.5 -55.1,0 -99.7,-34.6 -99.7,-77.5 0,-27.2 18.2,-69.2 45.6,-96.1 -152.5,-14.8 -291.9,-73.3 -405.7,-163.1 -36.4,6.4 -72.6,13.8 -108.8,21.8 -47.1,10.6 -93.6,23.6 -139.9,38.2 44.3,-19.7 89.3,-38.1 135.3,-54.1 28.5,-9.9 57.3,-19.4 86.3,-28.2 0,-0.1 0,-0.1 -0.1,-0.1 -35.3,-30.6 -67.9,-64.3 -97.2,-100.8 -13.9,2.3 -27.9,4.5 -41.8,7.1 -47.4,8.4 -94.4,18.9 -141.2,30.5 -46.9,11.7 -93,25.8 -138.9,41.4 43.7,-20.7 88.3,-40.2 133.9,-57.2 45.6,-17 91.7,-33 138.4,-47 8.2,-2.5 16.5,-4.7 24.8,-7.2 0,0 0,0 -0.1,-0.1 -21,-29.1 -39.9,-59.6 -56.9,-91.6 -16.2,2.9 -32.4,6.1 -48.5,9.4 -47.2,9.5 -94,21.1 -140.6,33.8 -46.5,12.6 -92.5,27.7 -138,44.3 43.3,-21.7 87.5,-42 132.7,-60.2 45.1,-17.9 90.9,-35 137.3,-50 13.2,-4.3 26.5,-8.5 39.8,-12.7"
         style="fill:#186c0d;fill-opacity:1;fill-rule:nonzero;stroke:none"
         id="path322" />
    </g>
  </g>
</svg>
